<svg width="523.4549682617187px" height="122.021240234375px" xmlns="http://www.w3.org/2000/svg" viewBox="-11.727484130859352 13.9893798828125 523.4549682617187 122.021240234375" style="background: rgba(0, 0, 0, 0);" preserveAspectRatio="xMidYMid"><defs><filter id="editing-offset"><feFlood flood-color="#f00" flood-opacity="0.5" result="c1"></feFlood><feFlood flood-color="#0f0" flood-opacity="0.5" result="c2"></feFlood><feFlood flood-color="#00f" flood-opacity="0.5" result="c3"></feFlood><feComposite operator="in" in="c1" in2="SourceAlpha" result="text-c1"></feComposite><feComposite operator="in" in="c2" in2="SourceAlpha" result="text-c2"></feComposite><feComposite operator="in" in="c3" in2="SourceAlpha" result="text-c3"></feComposite><feOffset in="text-c1" dx="-10" dy="0" result="text1"></feOffset><feOffset in="text-c2" dx="10" dy="0" result="text2"></feOffset><feOffset in="text-c3" dx="0" dy="0" result="text3"></feOffset><feMerge><feMergeNode in="text1"></feMergeNode><feMergeNode in="text2"></feMergeNode><feMergeNode in="text3"></feMergeNode></feMerge></filter></defs><g filter="url(#editing-offset)"><g transform="translate(64.36999821662903, 104.78218841552734)"><path d="M2.30-9.47L2.30-9.47L2.30-9.47Q2.30-11.97 2.94-15.17L2.94-15.17L8.13-42.24L22.27-42.24L17.15-14.98L17.15-14.98Q16.58-11.97 16.58-9.76L16.58-9.76L16.58-9.76Q16.58-7.55 17.50-6.40L17.50-6.40L17.50-6.40Q18.43-5.25 20.16-5.25L20.16-5.25L20.16-5.25Q21.89-5.25 22.98-5.70L22.98-5.70L22.98-5.70Q24.06-6.14 24.96-7.23L24.96-7.23L24.96-7.23Q26.69-9.41 27.78-14.98L27.78-14.98L32.96-42.24L42.62-42.24L37.50-15.04L37.50-15.04Q35.71-5.95 30.78-2.30L30.78-2.30L30.78-2.30Q25.98 1.28 16.51 1.28L16.51 1.28L16.51 1.28Q9.41 1.28 5.63-1.79L5.63-1.79L5.63-1.79Q2.30-4.48 2.30-9.47ZM64.26-7.23L64.26-7.23L64.26-7.23Q60.93-3.78 54.85-3.78L54.85-3.78L54.85-3.78Q47.23-3.78 45.63-9.34L45.63-9.34L45.63-9.34Q45.12-11.01 45.12-12.86L45.12-12.86L45.12-12.86Q45.12-14.72 45.50-16.64L45.50-16.64L48.51-32.64L61.50-33.92L57.98-15.30L57.98-15.30Q57.86-14.46 57.66-13.57L57.66-13.57L57.66-13.57Q57.47-12.67 57.47-11.74L57.47-11.74L57.47-11.74Q57.47-10.82 57.79-10.21L57.79-10.21L57.79-10.21Q58.11-9.60 58.56-9.22L58.56-9.22L58.56-9.22Q59.33-8.70 60.70-8.70L60.70-8.70L60.70-8.70Q62.08-8.70 63.26-10.37L63.26-10.37L63.26-10.37Q64.45-12.03 65.02-14.91L65.02-14.91L68.54-32.64L81.15-33.92L76.35-8.77L76.35-8.77Q73.98 3.52 69.12 8.38L69.12 8.38L69.12 8.38Q66.62 10.88 63.39 11.87L63.39 11.87L63.39 11.87Q60.16 12.86 56 12.86L56 12.86L56 12.86Q49.28 12.86 45.44 10.75L45.44 10.75L45.44 10.75Q41.60 8.64 41.60 5.12L41.60 5.12L41.60 5.12Q41.60 2.50 43.58 0.99L43.58 0.99L43.58 0.99Q45.57-0.51 48.64-0.51L48.64-0.51L48.64-0.51Q51.33-0.51 53.38 0.64L53.38 0.64L53.38 0.64Q54.59 1.34 55.17 2.24L55.17 2.24L55.17 2.24Q53.70 3.52 53.70 5.63L53.70 5.63L53.70 5.63Q53.70 8.45 56.26 8.45L56.26 8.45L56.26 8.45Q60.48 8.45 62.91-1.28L62.91-1.28L62.91-1.28Q63.62-4.16 64.26-7.23ZM109.38-10.82L109.38-10.82L109.38-10.82Q110.98-9.73 110.98-7.33L110.98-7.33L110.98-7.33Q110.98-4.93 109.76-3.39L109.76-3.39L109.76-3.39Q108.54-1.86 106.56-0.83L106.56-0.83L106.56-0.83Q102.46 1.28 98.05 1.28L98.05 1.28L98.05 1.28Q93.63 1.28 91.04 0.32L91.04 0.32L91.04 0.32Q88.45-0.64 86.72-2.43L86.72-2.43L86.72-2.43Q83.33-5.82 83.33-12.03L83.33-12.03L83.33-12.03Q83.33-21.70 88.58-27.58L88.58-27.58L88.58-27.58Q94.21-33.92 104-33.92L104-33.92L104-33.92Q110.08-33.92 113.09-31.36L113.09-31.36L113.09-31.36Q115.33-29.44 115.33-26.30L115.33-26.30L115.33-26.30Q115.33-15.04 95.87-15.04L95.87-15.04L95.87-15.04Q95.62-13.38 95.62-11.97L95.62-11.97L95.62-11.97Q95.62-9.02 96.93-7.90L96.93-7.90L96.93-7.90Q98.24-6.78 100.67-6.78L100.67-6.78L100.67-6.78Q103.10-6.78 105.70-7.90L105.70-7.90L105.70-7.90Q108.29-9.02 109.38-10.82ZM96.32-17.79L96.32-17.79L96.32-17.79Q100.86-17.79 103.49-20.61L103.49-20.61L103.49-20.61Q106.11-23.30 106.11-27.58L106.11-27.58L106.11-27.58Q106.11-29.06 105.57-29.86L105.57-29.86L105.57-29.86Q105.02-30.66 103.94-30.66L103.94-30.66L103.94-30.66Q102.85-30.66 101.92-30.24L101.92-30.24L101.92-30.24Q100.99-29.82 100.03-28.42L100.03-28.42L100.03-28.42Q97.66-25.22 96.32-17.79ZM144.58 1.28L144.58 1.28L144.58 1.28Q136.83 1.28 136.83-4.74L136.83-4.74L136.83-4.74Q136.90-6.40 137.41-9.22L137.41-9.22L138.56-15.10L138.56-15.10Q140.29-23.42 140.29-25.28L140.29-25.28L140.29-25.28Q140.29-28.99 138.11-28.99L138.11-28.99L138.11-28.99Q134.46-28.99 132.54-19.46L132.54-19.46L128.77 0L115.90 1.28L122.56-32.70L133.06-33.92L132.03-27.65L132.03-27.65Q135.04-33.92 144.26-33.92L144.26-33.92L144.26-33.92Q148.74-33.92 150.62-32.03L150.62-32.03L150.62-32.03Q152.51-30.14 152.51-25.92L152.51-25.92L152.51-25.92Q152.51-21.95 150.46-12.67L150.46-12.67L150.46-12.67Q149.50-8.51 149.50-6.94L149.50-6.94L149.50-6.94Q149.50-5.38 150.37-4.48L150.37-4.48L150.37-4.48Q151.23-3.58 152.51-3.46L152.51-3.46L152.51-3.46Q151.87-1.28 149.66 0L149.66 0L149.66 0Q147.46 1.28 144.58 1.28ZM191.04-13.25L191.04-13.25L191.04-13.25Q192.70-12.03 192.70-9.44L192.70-9.44L192.70-9.44Q192.70-6.85 191.58-5.02L191.58-5.02L191.58-5.02Q190.46-3.20 188.29-1.79L188.29-1.79L188.29-1.79Q183.62 1.22 175.46 1.22L175.46 1.22L175.46 1.22Q167.30 1.22 162.85-3.04L162.85-3.04L162.85-3.04Q158.40-7.30 158.40-14.85L158.40-14.85L158.40-14.85Q158.40-25.54 163.97-33.66L163.97-33.66L163.97-33.66Q168.19-39.68 175.74-42.24L175.74-42.24L175.74-42.24Q179.65-43.52 183.49-43.52L183.49-43.52L183.49-43.52Q187.33-43.52 189.70-43.01L189.70-43.01L189.70-43.01Q192.06-42.50 193.86-41.47L193.86-41.47L193.86-41.47Q197.76-39.23 197.76-35.65L197.76-35.65L197.76-35.65Q197.76-32.38 194.69-29.95L194.69-29.95L194.69-29.95Q191.87-27.78 189.57-27.78L189.57-27.78L189.57-27.78Q187.26-27.78 186.30-28.10L186.30-28.10L186.30-28.10Q186.56-30.40 186.56-31.90L186.56-31.90L186.56-31.90Q186.56-33.41 186.50-34.50L186.50-34.50L186.50-34.50Q186.43-35.58 186.11-36.61L186.11-36.61L186.11-36.61Q185.47-38.98 183.52-38.98L183.52-38.98L183.52-38.98Q181.57-38.98 179.62-37.15L179.62-37.15L179.62-37.15Q177.66-35.33 176.00-32.26L176.00-32.26L176.00-32.26Q172.22-25.28 172.22-17.02L172.22-17.02L172.22-17.02Q172.22-13.06 174.46-10.78L174.46-10.78L174.46-10.78Q176.70-8.51 181.50-8.51L181.50-8.51L181.50-8.51Q185.09-8.51 188.48-10.88L188.48-10.88L188.48-10.88Q189.95-11.90 191.04-13.25ZM230.21-7.10L230.21-7.10L230.21-7.10Q230.21-4.29 233.09-3.46L233.09-3.46L233.09-3.46Q232.38-1.09 229.63 0.19L229.63 0.19L229.63 0.19Q227.33 1.28 224.80 1.28L224.80 1.28L224.80 1.28Q222.27 1.28 220.96 0.61L220.96 0.61L220.96 0.61Q219.65-0.06 218.94-1.15L218.94-1.15L218.94-1.15Q217.79-2.82 217.79-5.95L217.79-5.95L217.79-5.95Q217.79-7.81 218.82-12.93L218.82-12.93L219.71-17.79L219.71-17.79Q220.80-23.36 220.80-25.41L220.80-25.41L220.80-25.41Q220.80-28.99 218.82-28.99L218.82-28.99L218.82-28.99Q216.32-28.99 214.72-25.34L214.72-25.34L214.72-25.34Q214.08-23.94 213.63-21.82L213.63-21.82L209.28 0L196.42 1.28L205.44-44.80L218.30-46.08L217.79-43.52L217.79-43.52Q216-33.66 214.46-30.34L214.46-30.34L214.46-30.34Q218.05-33.92 224.64-33.92L224.64-33.92L224.64-33.92Q231.62-33.92 232.90-29.31L232.90-29.31L232.90-29.31Q233.34-27.84 233.34-26.56L233.34-26.56L233.34-26.56Q233.34-25.28 233.25-24.29L233.25-24.29L233.25-24.29Q233.15-23.30 232.83-21.50L232.83-21.50L232-16.90L230.53-9.66L230.53-9.66Q230.21-8.19 230.21-7.10ZM253.63-3.52L253.63-3.52L253.63-3.52Q251.65 1.28 245.31 1.28L245.31 1.28L245.31 1.28Q242.05 1.28 240-0.96L240-0.96L240-0.96Q238.27-2.94 238.27-4.93L238.27-4.93L238.27-4.93Q238.27-10.11 240.64-20.22L240.64-20.22L243.01-32.64L256-33.92L252.10-13.70L252.10-13.70Q251.01-8.96 251.01-7.30L251.01-7.30L251.01-7.30Q251.01-3.65 253.63-3.52ZM244.16-41.54L244.16-41.54L244.16-41.54Q244.16-44.03 246.24-45.38L246.24-45.38L246.24-45.38Q248.32-46.72 251.33-46.72L251.33-46.72L251.33-46.72Q254.34-46.72 256.16-45.38L256.16-45.38L256.16-45.38Q257.98-44.03 257.98-41.54L257.98-41.54L257.98-41.54Q257.98-39.04 255.97-37.76L255.97-37.76L255.97-37.76Q253.95-36.48 250.94-36.48L250.94-36.48L250.94-36.48Q247.94-36.48 246.05-37.76L246.05-37.76L246.05-37.76Q244.16-39.04 244.16-41.54ZM279.10-17.98L279.10-17.98L279.10-17.98Q281.41-22.08 281.41-26.24L281.41-26.24L281.41-26.24Q281.41-28.99 279.42-28.99L279.42-28.99L279.42-28.99Q277.89-28.99 276.29-26.37L276.29-26.37L276.29-26.37Q274.62-23.74 274.11-20.35L274.11-20.35L270.78 0L257.54 1.28L264.06-32.64L274.62-33.92L273.47-27.46L273.47-27.46Q276.61-33.92 283.65-33.92L283.65-33.92L283.65-33.92Q287.36-33.92 289.38-32L289.38-32L289.38-32Q291.39-30.08 291.39-26.14L291.39-26.14L291.39-26.14Q291.39-22.21 288.80-19.71L288.80-19.71L288.80-19.71Q286.21-17.22 281.79-17.22L281.79-17.22L281.79-17.22Q279.87-17.22 279.10-17.98ZM322.24-4.38L322.24-4.38L322.24-4.38Q319.55-1.66 315.87-0.19L315.87-0.19L315.87-0.19Q312.19 1.28 308.54 1.28L308.54 1.28L308.54 1.28Q304.90 1.28 303.62 0.64L303.62 0.64L301.63 11.52L288.64 12.80L297.47-32.64L307.90-33.73L307.07-29.31L307.07-29.31Q309.76-33.86 315.33-33.86L315.33-33.86L315.33-33.86Q321.60-33.86 324.93-29.82L324.93-29.82L324.93-29.82Q327.87-26.18 327.87-20.61L327.87-20.61L327.87-20.61Q327.87-15.04 326.40-11.07L326.40-11.07L326.40-11.07Q324.93-7.10 322.24-4.38ZM307.78-22.34L304.38-3.58L304.38-3.58Q305.73-2.43 307.39-2.43L307.39-2.43L307.39-2.43Q309.06-2.43 310.02-3.07L310.02-3.07L310.02-3.07Q310.98-3.71 311.68-4.99L311.68-4.99L311.68-4.99Q313.60-8.45 315.14-18.94L315.14-18.94L315.14-18.94Q315.58-22.02 315.58-25.02L315.58-25.02L315.58-25.02Q315.58-28.03 314.91-28.99L314.91-28.99L314.91-28.99Q314.24-29.95 312.96-29.95L312.96-29.95L312.96-29.95Q309.06-29.95 307.78-22.34L307.78-22.34ZM352.06-7.23L352.06-7.23L352.06-7.23Q348.74-3.78 342.66-3.78L342.66-3.78L342.66-3.78Q335.04-3.78 333.44-9.34L333.44-9.34L333.44-9.34Q332.93-11.01 332.93-12.86L332.93-12.86L332.93-12.86Q332.93-14.72 333.31-16.64L333.31-16.64L336.32-32.64L349.31-33.92L345.79-15.30L345.79-15.30Q345.66-14.46 345.47-13.57L345.47-13.57L345.47-13.57Q345.28-12.67 345.28-11.74L345.28-11.74L345.28-11.74Q345.28-10.82 345.60-10.21L345.60-10.21L345.60-10.21Q345.92-9.60 346.37-9.22L346.37-9.22L346.37-9.22Q347.14-8.70 348.51-8.70L348.51-8.70L348.51-8.70Q349.89-8.70 351.07-10.37L351.07-10.37L351.07-10.37Q352.26-12.03 352.83-14.91L352.83-14.91L356.35-32.64L368.96-33.92L364.16-8.77L364.16-8.77Q361.79 3.52 356.93 8.38L356.93 8.38L356.93 8.38Q354.43 10.88 351.20 11.87L351.20 11.87L351.20 11.87Q347.97 12.86 343.81 12.86L343.81 12.86L343.81 12.86Q337.09 12.86 333.25 10.75L333.25 10.75L333.25 10.75Q329.41 8.64 329.41 5.12L329.41 5.12L329.41 5.12Q329.41 2.50 331.39 0.99L331.39 0.99L331.39 0.99Q333.38-0.51 336.45-0.51L336.45-0.51L336.45-0.51Q339.14-0.51 341.18 0.64L341.18 0.64L341.18 0.64Q342.40 1.34 342.98 2.24L342.98 2.24L342.98 2.24Q341.50 3.52 341.50 5.63L341.50 5.63L341.50 5.63Q341.50 8.45 344.06 8.45L344.06 8.45L344.06 8.45Q348.29 8.45 350.72-1.28L350.72-1.28L350.72-1.28Q351.42-4.16 352.06-7.23Z"></path></g></g><style>text {
  font-size: 64px;
  font-family: Arial Black;
  dominant-baseline: central;
  text-anchor: middle;
}</style></svg>